<mxfile host="app.diagrams.net" modified="2021-04-12T17:15:28.670Z" agent="5.0 (Windows NT 10.0; Win64; x64) AppleWebKit/537.36 (KHTML, like Gecko) Chrome/89.0.4389.114 Safari/537.36 Edg/89.0.774.75" etag="c2SqSJ5LhnkMy55ZdbPd" version="14.5.10" type="github">
  <diagram id="PEgndeJF35uo4z62GtRo" name="Page-1">
    <mxGraphModel dx="2128" dy="580" grid="1" gridSize="10" guides="1" tooltips="1" connect="1" arrows="1" fold="1" page="1" pageScale="1" pageWidth="850" pageHeight="1100" math="0" shadow="0">
      <root>
        <mxCell id="0" />
        <mxCell id="1" parent="0" />
        <mxCell id="aKEwGKDzat3nbrvRopo1-3" style="edgeStyle=orthogonalEdgeStyle;rounded=0;orthogonalLoop=1;jettySize=auto;html=1;exitX=1;exitY=0.5;exitDx=0;exitDy=0;" edge="1" parent="1" source="aKEwGKDzat3nbrvRopo1-1">
          <mxGeometry relative="1" as="geometry">
            <mxPoint x="320" y="520" as="targetPoint" />
          </mxGeometry>
        </mxCell>
        <mxCell id="aKEwGKDzat3nbrvRopo1-1" value="Eclipse/IntelliJ&lt;br&gt;&lt;br&gt;Java/Python/UI Code" style="rounded=0;whiteSpace=wrap;html=1;" vertex="1" parent="1">
          <mxGeometry x="50" y="470" width="160" height="100" as="geometry" />
        </mxCell>
        <mxCell id="aKEwGKDzat3nbrvRopo1-2" value="&amp;nbsp; &amp;nbsp; &amp;nbsp; &amp;nbsp; &amp;nbsp; &amp;nbsp; &amp;nbsp; &amp;nbsp; &amp;nbsp; &amp;nbsp; &amp;nbsp; &amp;nbsp; &amp;nbsp; &amp;nbsp; &amp;nbsp; &amp;nbsp; &amp;nbsp; &amp;nbsp; &amp;nbsp; &amp;nbsp; &amp;nbsp;Software Developers N Tools" style="text;html=1;align=center;verticalAlign=middle;resizable=0;points=[];autosize=1;strokeColor=none;" vertex="1" parent="1">
          <mxGeometry x="-95" y="440" width="310" height="20" as="geometry" />
        </mxCell>
        <mxCell id="aKEwGKDzat3nbrvRopo1-5" style="edgeStyle=orthogonalEdgeStyle;rounded=0;orthogonalLoop=1;jettySize=auto;html=1;exitX=1;exitY=0.5;exitDx=0;exitDy=0;" edge="1" parent="1" source="aKEwGKDzat3nbrvRopo1-4">
          <mxGeometry relative="1" as="geometry">
            <mxPoint x="510" y="520" as="targetPoint" />
          </mxGeometry>
        </mxCell>
        <mxCell id="aKEwGKDzat3nbrvRopo1-4" value="Maven&lt;br&gt;Ant&lt;br&gt;Gradle" style="rounded=0;whiteSpace=wrap;html=1;" vertex="1" parent="1">
          <mxGeometry x="320" y="490" width="120" height="60" as="geometry" />
        </mxCell>
        <mxCell id="aKEwGKDzat3nbrvRopo1-10" style="edgeStyle=orthogonalEdgeStyle;rounded=0;orthogonalLoop=1;jettySize=auto;html=1;exitX=0.5;exitY=1;exitDx=0;exitDy=0;entryX=0.5;entryY=0;entryDx=0;entryDy=0;" edge="1" parent="1" source="aKEwGKDzat3nbrvRopo1-6" target="aKEwGKDzat3nbrvRopo1-11">
          <mxGeometry relative="1" as="geometry">
            <mxPoint y="680" as="targetPoint" />
            <Array as="points">
              <mxPoint x="570" y="625" />
              <mxPoint y="625" />
            </Array>
          </mxGeometry>
        </mxCell>
        <mxCell id="aKEwGKDzat3nbrvRopo1-6" value="BitBucket&lt;br&gt;Github" style="ellipse;whiteSpace=wrap;html=1;" vertex="1" parent="1">
          <mxGeometry x="510" y="480" width="120" height="80" as="geometry" />
        </mxCell>
        <mxCell id="aKEwGKDzat3nbrvRopo1-7" value="&amp;nbsp; &amp;nbsp; &amp;nbsp; &amp;nbsp; &amp;nbsp; &amp;nbsp; &amp;nbsp; &amp;nbsp; &amp;nbsp; &amp;nbsp; &amp;nbsp; &amp;nbsp; &amp;nbsp; &amp;nbsp; &amp;nbsp; &amp;nbsp; &amp;nbsp; &amp;nbsp; Source Code Management" style="text;html=1;align=center;verticalAlign=middle;resizable=0;points=[];autosize=1;strokeColor=none;" vertex="1" parent="1">
          <mxGeometry x="370" y="450" width="280" height="20" as="geometry" />
        </mxCell>
        <mxCell id="aKEwGKDzat3nbrvRopo1-8" value="&amp;nbsp; &amp;nbsp; &amp;nbsp; &amp;nbsp; &amp;nbsp; &amp;nbsp; &amp;nbsp; &amp;nbsp; &amp;nbsp; Build Tools" style="text;html=1;align=center;verticalAlign=middle;resizable=0;points=[];autosize=1;strokeColor=none;" vertex="1" parent="1">
          <mxGeometry x="275" y="450" width="130" height="20" as="geometry" />
        </mxCell>
        <mxCell id="aKEwGKDzat3nbrvRopo1-23" style="edgeStyle=orthogonalEdgeStyle;rounded=0;orthogonalLoop=1;jettySize=auto;html=1;exitX=1;exitY=0.25;exitDx=0;exitDy=0;entryX=0;entryY=0.357;entryDx=0;entryDy=0;entryPerimeter=0;" edge="1" parent="1" source="aKEwGKDzat3nbrvRopo1-11" target="aKEwGKDzat3nbrvRopo1-14">
          <mxGeometry relative="1" as="geometry" />
        </mxCell>
        <mxCell id="aKEwGKDzat3nbrvRopo1-11" value="Jenkins&lt;br&gt;BamBoo&lt;br&gt;CircleCI" style="rounded=0;whiteSpace=wrap;html=1;" vertex="1" parent="1">
          <mxGeometry x="-60" y="690" width="120" height="60" as="geometry" />
        </mxCell>
        <mxCell id="aKEwGKDzat3nbrvRopo1-12" value="&amp;nbsp; &amp;nbsp; &amp;nbsp; &amp;nbsp; &amp;nbsp; &amp;nbsp; &amp;nbsp; &amp;nbsp; &amp;nbsp; &amp;nbsp; &amp;nbsp; &amp;nbsp; &amp;nbsp;Build Servers" style="text;html=1;align=center;verticalAlign=middle;resizable=0;points=[];autosize=1;strokeColor=none;" vertex="1" parent="1">
          <mxGeometry x="-165" y="660" width="170" height="20" as="geometry" />
        </mxCell>
        <mxCell id="aKEwGKDzat3nbrvRopo1-43" style="edgeStyle=orthogonalEdgeStyle;rounded=0;orthogonalLoop=1;jettySize=auto;html=1;exitX=1;exitY=0.5;exitDx=0;exitDy=0;" edge="1" parent="1" source="aKEwGKDzat3nbrvRopo1-14">
          <mxGeometry relative="1" as="geometry">
            <mxPoint x="360" y="715" as="targetPoint" />
          </mxGeometry>
        </mxCell>
        <mxCell id="aKEwGKDzat3nbrvRopo1-14" value="SonarQube Server" style="rounded=0;whiteSpace=wrap;html=1;" vertex="1" parent="1">
          <mxGeometry x="160" y="680" width="120" height="70" as="geometry" />
        </mxCell>
        <mxCell id="aKEwGKDzat3nbrvRopo1-15" value="&amp;nbsp; &amp;nbsp; &amp;nbsp; &amp;nbsp; &amp;nbsp; &amp;nbsp; &amp;nbsp; Core Riview/" style="text;html=1;align=center;verticalAlign=middle;resizable=0;points=[];autosize=1;strokeColor=none;" vertex="1" parent="1">
          <mxGeometry x="109" y="660" width="130" height="20" as="geometry" />
        </mxCell>
        <mxCell id="aKEwGKDzat3nbrvRopo1-17" value="&amp;nbsp; &amp;nbsp; &amp;nbsp; &amp;nbsp; &amp;nbsp; Code Quality" style="text;html=1;align=center;verticalAlign=middle;resizable=0;points=[];autosize=1;strokeColor=none;" vertex="1" parent="1">
          <mxGeometry x="191" y="660" width="120" height="20" as="geometry" />
        </mxCell>
        <mxCell id="aKEwGKDzat3nbrvRopo1-49" style="edgeStyle=orthogonalEdgeStyle;rounded=0;orthogonalLoop=1;jettySize=auto;html=1;exitX=0;exitY=0.5;exitDx=0;exitDy=0;" edge="1" parent="1" source="aKEwGKDzat3nbrvRopo1-44">
          <mxGeometry relative="1" as="geometry">
            <mxPoint x="360" y="715" as="targetPoint" />
          </mxGeometry>
        </mxCell>
        <mxCell id="aKEwGKDzat3nbrvRopo1-51" style="edgeStyle=orthogonalEdgeStyle;rounded=0;orthogonalLoop=1;jettySize=auto;html=1;exitX=1;exitY=0.5;exitDx=0;exitDy=0;" edge="1" parent="1" source="aKEwGKDzat3nbrvRopo1-44">
          <mxGeometry relative="1" as="geometry">
            <mxPoint x="560" y="715" as="targetPoint" />
          </mxGeometry>
        </mxCell>
        <mxCell id="aKEwGKDzat3nbrvRopo1-44" value="Selenium Test Suites" style="rounded=0;whiteSpace=wrap;html=1;" vertex="1" parent="1">
          <mxGeometry x="365" y="685" width="115" height="60" as="geometry" />
        </mxCell>
        <mxCell id="aKEwGKDzat3nbrvRopo1-46" value="&amp;nbsp; &amp;nbsp; &amp;nbsp; &amp;nbsp; &amp;nbsp; &amp;nbsp; &amp;nbsp; &amp;nbsp; &amp;nbsp; &amp;nbsp; &amp;nbsp; &amp;nbsp; &amp;nbsp; &amp;nbsp; &amp;nbsp; &amp;nbsp; &amp;nbsp; Continuous Testing" style="text;html=1;align=center;verticalAlign=middle;resizable=0;points=[];autosize=1;strokeColor=none;" vertex="1" parent="1">
          <mxGeometry x="245" y="660" width="230" height="20" as="geometry" />
        </mxCell>
        <mxCell id="aKEwGKDzat3nbrvRopo1-54" style="edgeStyle=orthogonalEdgeStyle;rounded=0;orthogonalLoop=1;jettySize=auto;html=1;exitX=0.5;exitY=1;exitDx=0;exitDy=0;" edge="1" parent="1" source="aKEwGKDzat3nbrvRopo1-52">
          <mxGeometry relative="1" as="geometry">
            <mxPoint x="620" y="840" as="targetPoint" />
          </mxGeometry>
        </mxCell>
        <mxCell id="aKEwGKDzat3nbrvRopo1-52" value="JFrog&lt;br&gt;Nexus&amp;nbsp;" style="rounded=0;whiteSpace=wrap;html=1;" vertex="1" parent="1">
          <mxGeometry x="560" y="685" width="120" height="60" as="geometry" />
        </mxCell>
        <mxCell id="aKEwGKDzat3nbrvRopo1-53" value="&amp;nbsp; &amp;nbsp; &amp;nbsp; &amp;nbsp; &amp;nbsp; &amp;nbsp; &amp;nbsp; &amp;nbsp; &amp;nbsp; &amp;nbsp; &amp;nbsp; &amp;nbsp; &amp;nbsp; &amp;nbsp; &amp;nbsp; &amp;nbsp;Artifactory Tools" style="text;html=1;align=center;verticalAlign=middle;resizable=0;points=[];autosize=1;strokeColor=none;" vertex="1" parent="1">
          <mxGeometry x="460" y="660" width="200" height="20" as="geometry" />
        </mxCell>
        <mxCell id="aKEwGKDzat3nbrvRopo1-55" value="" style="rounded=0;whiteSpace=wrap;html=1;" vertex="1" parent="1">
          <mxGeometry x="560" y="840" width="120" height="60" as="geometry" />
        </mxCell>
      </root>
    </mxGraphModel>
  </diagram>
</mxfile>
